<svg width="120" height="104" viewBox="0 0 120 104" fill="none" xmlns="http://www.w3.org/2000/svg">
<path d="M70.5 28.4258V61.1201L37.5 82.2197L4.5 61.1201V28.4258L37.5 10.7021L70.5 28.4258Z" fill="#FFE437" stroke="white" stroke-width="3"/>
<path d="M55.0015 39.0013L56.9998 34.5005L61.4994 34.5006L67.9991 38.0008L72.4988 41.0012L74.4991 39.5012L78.499 39.5013L81 42L81.5 46L78.5 50.5L83.5 58L83 63L80 66L76.5 65.5L74 62L71.4989 63.5009L68.8771 62.49L67.7657 60.4099L57.0078 60.41L58.0078 52.0041L59.0029 48.5006L57.0055 47.0026L57.0041 44.9032L58.5023 42.5014L55.0015 39.0013Z" fill="#E0BF00"/>
<rect x="-0.186271" y="1.22221" width="4.04073" height="1.73671" rx="0.868355" transform="matrix(0.587034 0.809562 -0.801544 0.597935 34.7531 54.2906)" fill="white" stroke="white" stroke-width="1.73671"/>
<rect x="-0.198794" y="1.30438" width="4.07744" height="1.85347" rx="0.926735" transform="matrix(0.587034 0.809562 -0.801544 0.597935 30.7336 47.953)" fill="white" stroke="white" stroke-width="1.85347"/>
<rect x="-0.31819" y="1.2159" width="4.16536" height="1.76555" rx="0.882773" transform="matrix(0.499205 0.866484 -0.859649 0.510885 26.7132 42.2357)" fill="white" stroke="white" stroke-width="1.76555"/>
<rect x="-0.804259" y="0.965834" width="4.16536" height="1.76555" rx="0.882773" transform="matrix(0.0841621 0.996452 -0.995222 0.0976388 25.5938 36.0909)" fill="white" stroke="white" stroke-width="1.76555"/>
<rect x="-1.17307" y="0.475246" width="4.13178" height="1.77796" rx="0.888978" transform="matrix(-0.39608 0.918216 -0.923492 -0.383618 26.4272 29.5706)" fill="white" stroke="white" stroke-width="1.77796"/>
<rect x="-1.25573" y="-0.29424" width="4.10968" height="1.81175" rx="0.905875" transform="matrix(-0.853325 0.521379 -0.532878 -0.846192 30.3019 24.0002)" fill="white" stroke="white" stroke-width="1.81175"/>
<rect x="-0.983374" y="-0.834508" width="4.10968" height="1.81175" rx="0.905875" transform="matrix(-0.997193 0.0748708 -0.0883583 -0.996089 37.4557 21.9919)" fill="white" stroke="white" stroke-width="1.81175"/>
<rect x="-0.462435" y="-1.13841" width="4.19536" height="1.72607" rx="0.863036" transform="matrix(-0.918584 -0.395227 0.38276 -0.923848 44.7122 23.717)" fill="white" stroke="white" stroke-width="1.72607"/>
<rect x="0.145775" y="-1.25505" width="3.91159" height="1.77487" rx="0.887436" transform="matrix(-0.615484 -0.78815 0.779749 -0.626093 49.7326 28.9862)" fill="white" stroke="white" stroke-width="1.77487"/>
<rect x="-0.170029" y="1.16239" width="3.76154" height="1.65016" rx="0.825078" transform="matrix(0.591841 0.806055 -0.797916 0.602768 39.6896 60.4211)" fill="white" stroke="white" stroke-width="1.65016"/>
<rect x="0.484679" y="0.995678" width="3.80772" height="1.55668" rx="0.778341" transform="matrix(0.943277 0.332006 -0.320569 0.947225 42.9845 65.6846)" fill="white" stroke="white" stroke-width="1.55668"/>
<rect x="1.1817" y="-0.00209083" width="3.69796" height="1.68407" rx="0.842035" transform="matrix(0.70043 -0.713721 0.702952 0.711238 48.5936 66.7373)" fill="white" stroke="white" stroke-width="1.68407"/>
<rect x="-0.112133" y="0.718898" width="4.39028" height="1.0221" rx="0.511052" transform="matrix(0.584227 0.81159 -0.803643 0.595112 30.0836 48.3958)" fill="white" stroke="white" stroke-width="1.0221"/>
<rect x="-0.150482" y="0.710993" width="4.39477" height="1.02138" rx="0.51069" transform="matrix(0.540096 0.841604 -0.834759 0.550616 26.1935 42.3446)" fill="white" stroke="white" stroke-width="1.02138"/>
<rect x="-0.451468" y="0.560725" width="4.41495" height="1.01812" rx="0.50906" transform="matrix(0.107363 0.99422 -0.99423 0.107272 24.2149 35.926)" fill="white" stroke="white" stroke-width="1.01812"/>
<rect x="0.674652" y="-0.245602" width="4.38796" height="1.02248" rx="0.511239" transform="matrix(0.416261 -0.909245 0.903381 0.428839 23.3723 32.604)" fill="white" stroke="white" stroke-width="1.02248"/>
<rect x="0.705847" y="0.164265" width="4.33344" height="1.03119" rx="0.515593" transform="matrix(0.845748 -0.533583 0.523254 0.852177 26.8089 25.4009)" fill="white" stroke="white" stroke-width="1.03119"/>
<rect x="0.558601" y="0.472377" width="4.31476" height="1.03414" rx="0.517071" transform="matrix(0.996556 -0.0829213 0.0837622 0.996486 33.3952 21.4054)" fill="white" stroke="white" stroke-width="1.03414"/>
<rect x="0.261249" y="0.685202" width="4.34055" height="1.03006" rx="0.515029" transform="matrix(0.909812 0.415021 -0.40256 0.915394 41.1259 21.1214)" fill="white" stroke="white" stroke-width="1.03006"/>
<rect x="-0.0705179" y="0.725053" width="4.38514" height="1.02293" rx="0.511466" transform="matrix(0.629799 0.776758 -0.767673 0.640842 47.7088 25.1082)" fill="white" stroke="white" stroke-width="1.02293"/>
<rect x="-0.761216" y="1.00178" width="4.04807" height="1.77864" rx="0.889319" transform="matrix(0.134811 0.990871 -0.990765 0.13559 52.5816 33.0499)" fill="white" stroke="white" stroke-width="1.77864"/>
<rect x="-1.1296" y="0.475489" width="3.66928" height="1.74473" rx="0.872363" transform="matrix(-0.371314 0.928508 -0.923562 -0.383449 51.5584 41.8551)" fill="white" stroke="white" stroke-width="1.74473"/>
<rect x="-1.17171" y="0.397219" width="3.64653" height="1.76222" rx="0.881112" transform="matrix(-0.436278 0.899812 -0.893533 -0.448997 48.5789 48.7998)" fill="white" stroke="white" stroke-width="1.76222"/>
<rect x="-1.05674" y="0.393311" width="3.80526" height="1.60571" rx="0.802853" transform="matrix(-0.409771 0.912188 -0.906458 -0.422296 45.6093 55.455)" fill="white" stroke="white" stroke-width="1.60571"/>
<rect x="-0.258721" y="1.22541" width="3.65594" height="1.76018" rx="0.880088" transform="matrix(0.540511 0.841337 -0.834482 0.551035 43.126 29.7659)" fill="white" stroke="white" stroke-width="1.76018"/>
<rect x="1.22824" y="-0.387722" width="3.57235" height="1.83478" rx="0.917391" transform="matrix(0.455025 -0.890479 0.883812 0.467843 29.687 35.6882)" fill="white" stroke="white" stroke-width="1.83478"/>
<rect x="0.148561" y="-1.12341" width="3.81908" height="1.5916" rx="0.795801" transform="matrix(-0.602799 -0.797893 0.78948 -0.613777 33.8157 40.8603)" fill="white" stroke="white" stroke-width="1.5916"/>
<rect x="0.824687" y="0.64405" width="3.86877" height="1.48008" rx="0.740039" transform="matrix(0.992499 -0.122253 0.121883 0.992545 33.5704 28.8068)" fill="white" stroke="white" stroke-width="1.48008"/>
<rect x="0.858103" y="0.670147" width="3.8088" height="1.54005" rx="0.770026" transform="matrix(0.992499 -0.122253 0.121883 0.992545 34.8764 40.4966)" fill="white" stroke="white" stroke-width="1.54005"/>
<rect x="-1.06921" y="0.349313" width="3.80565" height="1.60226" rx="0.801128" transform="matrix(-0.446155 0.894956 -0.888473 -0.458929 44.3059 38.0271)" fill="white" stroke="white" stroke-width="1.60226"/>
<path d="M78.8962 32.3757C78.0061 31.9273 76.8242 32.8652 77.0577 33.8307C77.1732 34.2822 77.3692 34.5032 77.9382 34.7756L78.4334 35.015L78.5379 35.5121C78.6974 36.2787 78.5461 37.4973 78.1901 38.2713C78.0454 38.5993 78.0352 38.5983 77.7039 38.5042C77.5433 38.4576 77.1248 38.3966 76.7653 38.362C75.0841 38.2156 73.4857 38.6574 72.0998 39.6483L71.4842 40.0863L71.1018 39.692C68.4907 36.9898 65.7147 34.8624 63.4991 33.8718C61.7902 33.1113 59.9651 32.8681 58.6388 33.2119C57.1828 33.5949 55.7875 34.704 55.1542 35.9953C54.4063 37.4983 54.4005 39.135 55.1208 40.8261C55.3905 41.4583 55.4869 41.6023 56.2461 42.5614L57.0785 43.6001L56.6535 44.0514C55.9022 44.8287 55.5009 45.8418 55.6296 46.6055C55.8195 47.6704 56.619 48.5142 57.8602 48.9395C58.1196 49.0266 58.3219 49.1135 58.3252 49.1293C58.3181 49.1442 58.1279 49.4626 57.9049 49.8349C57.0376 51.2954 56.3446 53.1508 55.9029 55.2015C55.4854 57.1405 55.2368 60.189 55.4327 60.871C55.503 61.1006 55.5435 61.1511 55.7548 61.2492C56.3681 61.5414 58.8577 61.9159 60.508 61.9765C63.209 62.0709 65.5746 61.7702 67.3813 61.1153L67.8715 60.9345L67.8782 61.215C67.8831 62.0962 68.3349 63.1449 68.9113 63.6512C69.8731 64.4848 71.1216 64.5169 72.4147 63.7296L72.9534 63.4085L73.7184 64.3629C74.5778 65.4353 75.0829 65.8881 75.9904 66.4056C77.0965 67.0406 78.6552 67.2944 79.8 67.0316C80.6778 66.826 81.1872 66.5746 81.965 65.9604C82.721 65.3545 83.0761 64.9224 83.4552 64.1299C84.8587 61.1978 83.7159 56.6734 80.1707 51.1145L79.5187 50.088L79.9573 49.7364C81.4591 48.5236 82.3887 46.5614 82.4434 44.4891L82.448 44.0336L82.9941 43.9463C83.8002 43.8167 84.9171 43.945 85.5112 44.225L85.9961 44.4634L86.1007 44.9605C86.275 45.8167 86.7954 46.2295 87.5212 46.118C87.86 46.0678 87.9601 46.0152 88.2422 45.7523C88.959 45.0856 88.8006 44.1429 87.8964 43.7242C87.6851 43.6261 87.4533 43.5261 87.3884 43.5043C87.3178 43.4871 86.9203 43.2986 86.4977 43.1025C85.271 42.518 84.0359 42.3368 82.6529 42.5508C82.2557 42.6109 82.1119 42.5971 82.081 42.5112C81.9888 42.207 81.6948 41.6036 81.4003 41.1296C81.0465 40.5463 80.3621 39.8224 79.8296 39.4654C79.6574 39.3452 79.4955 39.226 79.4685 39.1923C79.4415 39.1586 79.5112 38.8907 79.6302 38.6017C79.8875 37.9529 80.0933 36.6723 80.0527 35.9948C80.0312 35.7078 79.9471 35.2126 79.8678 34.8889C79.7942 34.5606 79.711 34.1847 79.6864 34.0477C79.4874 32.8886 79.3606 32.6122 78.8962 32.3757ZM80.4871 42.4147C81.3062 44.0635 81.086 46.2132 79.9254 47.7334C79.7453 47.97 79.4081 48.3416 79.1722 48.5676L78.758 48.9733L78.4822 48.5581C77.852 47.6063 74.5228 43.4049 73.5144 42.2767C72.9475 41.6521 72.4848 41.1102 72.4931 41.0851C72.4969 41.0543 72.7586 40.8723 73.0741 40.6747C74.2787 39.9307 75.3984 39.6603 76.6925 39.785C78.3096 39.9459 79.7504 40.9396 80.4871 42.4147ZM73.8256 44.8765C73.7275 44.9551 71.3838 45.3304 70.305 45.4389C67.7045 45.7065 64.7389 45.5659 62.7967 45.0939C57.5955 43.8312 54.4492 39.0775 56.7813 35.9914C57.5087 35.0304 58.6801 34.4697 59.9965 34.4566C62.1448 34.4408 65.2638 36.1919 68.5987 39.3006C70.3131 40.8958 73.9468 44.7794 73.8256 44.8765ZM76.7524 48.635C79.0548 51.8981 80.3642 54.076 81.2872 56.1856C82.8312 59.6969 83.0295 62.3688 81.8838 64.0614C81.2924 64.9319 80.2052 65.6095 79.2188 65.727C78.2588 65.8417 76.8339 65.3884 75.964 64.6932C74.5217 63.544 73.4444 61.7149 73.0049 59.6881C72.457 57.195 72.8873 53.6045 74.1933 49.6993C74.4926 48.7956 75.2631 46.8595 75.3497 46.7901C75.4074 46.7438 75.5501 46.9338 76.7524 48.635ZM73.1999 48.1995C72.9446 48.8744 72.447 50.3705 72.3422 50.7956C72.2738 51.0532 72.2271 51.1368 72.1519 51.114C71.7834 50.9853 68.7724 47.1928 68.9205 47.0464C68.9448 47.0177 69.3922 46.9727 69.9172 46.93C70.9626 46.839 72.3373 46.6502 73.1118 46.4813C74.0904 46.2595 74.0531 46.2248 73.7004 47.0146C73.5288 47.3919 73.3061 47.93 73.1999 48.1995ZM68.1907 48.6548C68.9668 49.8124 70.6103 51.7686 71.3203 52.3707L71.4886 52.5216L71.1195 52.9834C70.9163 53.2385 70.537 53.7822 70.2724 54.1971C70.0033 54.6064 69.7546 54.9348 69.7078 54.9355C69.6006 54.92 68.6466 54.2737 68.1513 53.8685C67.1561 53.0524 65.8724 51.4625 65.3017 50.3246C65.09 49.8949 64.6001 48.6924 64.5968 48.5936C64.5981 48.5833 64.9323 48.4446 65.3397 48.3025C65.7484 48.1501 66.3387 47.9168 66.6479 47.7705C66.9628 47.6195 67.265 47.488 67.3144 47.4668C67.3843 47.4476 67.4601 47.5068 67.5663 47.6983C67.657 47.8469 67.936 48.278 68.1907 48.6548ZM71.373 57.2616C71.3488 58.0002 71.4717 59.3125 71.6292 60.053C71.7795 60.7255 72.1557 61.8809 72.2772 62.0325C72.3447 62.1167 72.2973 62.1639 71.9413 62.3939C70.5451 63.3008 69.5035 62.9 69.2796 61.3551C69.0816 60.02 69.9603 57.2965 71.2441 55.2441C71.3607 55.0584 71.4901 54.8533 71.5356 54.7799C71.5766 54.701 71.5668 55.1145 71.5059 55.689C71.4392 56.268 71.3822 56.9775 71.373 57.2616ZM65.1443 46.9469C65.0641 46.9651 64.7291 47.0675 64.3987 47.1756C62.3404 47.8478 59.3592 48.0424 58.2052 47.5841C56.8137 47.0304 56.6654 45.9229 57.8207 44.8218L58.1746 44.4828L58.7997 44.9316C60.2573 45.958 62.3409 46.6302 64.6319 46.8043C65.2186 46.8504 65.4042 46.9046 65.1443 46.9469ZM63.4227 49.553C64.2768 52.0497 66.2836 54.5538 68.5208 55.9144C68.8157 56.093 69.0707 56.2575 69.0842 56.2743C69.0977 56.2912 68.9985 56.5458 68.8634 56.8385C68.7181 57.1302 68.4986 57.6842 68.3681 58.0654C68.2318 58.4512 68.1147 58.7663 68.0942 58.7643C67.743 58.7046 66.0556 57.6872 65.275 57.068C63.5693 55.6964 61.9569 53.5308 61.1335 51.4982C60.8741 50.867 60.497 49.5095 60.5373 49.3942C60.5527 49.3543 60.8241 49.3027 61.1457 49.2663C61.4614 49.2345 62.0499 49.141 62.46 49.0613C62.8642 48.9863 63.1986 48.9304 63.2076 48.9416C63.2166 48.9528 63.3125 49.2263 63.4227 49.553ZM59.7842 51.9434C60.3965 53.4997 60.7444 54.0876 62.0911 55.7561C63.369 57.3507 63.7289 57.7169 64.9245 58.5937C65.4146 58.957 66.2355 59.4609 66.802 59.7538C67.0608 59.8876 65.225 60.3169 63.8143 60.4608C63.3991 60.4985 63.0069 60.5178 62.935 60.5108C62.7527 60.4725 61.8225 59.8441 61.1891 59.3375C60.4855 58.7672 59.3132 57.4107 58.8026 56.5844C58.3839 55.8964 58.1523 55.4182 57.8586 54.6023C57.6242 53.9787 57.6338 53.9434 58.1239 52.5917C58.3427 52.0014 59.1136 50.3969 59.2232 50.3091C59.2406 50.2952 59.3011 50.4772 59.3598 50.716C59.4198 50.9445 59.6104 51.5018 59.7842 51.9434ZM57.5023 57.2208C57.8753 57.8992 59.2798 59.6044 59.8542 60.0845C60.1042 60.29 60.338 60.499 60.374 60.5439C60.41 60.5888 60.0114 60.5763 59.4831 60.5203C58.3616 60.3863 56.9126 60.1276 56.8451 60.0434C56.7641 59.9423 56.821 58.6059 56.9506 57.4785C57.044 56.6844 57.0938 56.4509 57.1562 56.576C57.2019 56.6685 57.3582 56.9582 57.5023 57.2208Z" fill="black"/>
</svg>
